<svg width="103" height="31" viewBox="0 0 103 31" fill="none" xmlns="http://www.w3.org/2000/svg">
<path d="M13.3125 7.4668C11.2617 7.4668 9.67383 8.24023 8.54883 9.78711C7.42383 11.3223 6.86133 13.4668 6.86133 16.2207C6.86133 21.9512 9.01172 24.8164 13.3125 24.8164C15.1172 24.8164 17.3027 24.3652 19.8691 23.4629V28.0332C17.7598 28.9121 15.4043 29.3516 12.8027 29.3516C9.06445 29.3516 6.20508 28.2207 4.22461 25.959C2.24414 23.6855 1.25391 20.4277 1.25391 16.1855C1.25391 13.5137 1.74023 11.1758 2.71289 9.17188C3.68555 7.15625 5.08008 5.61523 6.89648 4.54883C8.72461 3.4707 10.8633 2.93164 13.3125 2.93164C15.8086 2.93164 18.3164 3.53516 20.8359 4.74219L19.0781 9.17188C18.1172 8.71484 17.1504 8.31641 16.1777 7.97656C15.2051 7.63672 14.25 7.4668 13.3125 7.4668ZM43.0723 29H37.7109V17.5215C37.7109 14.6855 36.6562 13.2676 34.5469 13.2676C33.0469 13.2676 31.9629 13.7773 31.2949 14.7969C30.627 15.8164 30.293 17.4688 30.293 19.7539V29H24.9316V1.64844H30.293V7.2207C30.293 7.6543 30.252 8.67383 30.1699 10.2793L30.0469 11.8613H30.3281C31.5234 9.93945 33.4219 8.97852 36.0234 8.97852C38.332 8.97852 40.084 9.59961 41.2793 10.8418C42.4746 12.084 43.0723 13.8652 43.0723 16.1855V29ZM56.7305 12.793C55.5938 12.793 54.7031 13.1562 54.0586 13.8828C53.4141 14.5977 53.0449 15.6172 52.9512 16.9414H60.4746C60.4512 15.6172 60.1055 14.5977 59.4375 13.8828C58.7695 13.1562 57.8672 12.793 56.7305 12.793ZM57.4863 29.3516C54.3223 29.3516 51.8496 28.4785 50.0684 26.7324C48.2871 24.9863 47.3965 22.5137 47.3965 19.3145C47.3965 16.0215 48.2168 13.4785 49.8574 11.6855C51.5098 9.88086 53.7891 8.97852 56.6953 8.97852C59.4727 8.97852 61.6348 9.76953 63.1816 11.3516C64.7285 12.9336 65.502 15.1191 65.502 17.9082V20.5098H52.8281C52.8867 22.0332 53.3379 23.2227 54.1816 24.0781C55.0254 24.9336 56.209 25.3613 57.7324 25.3613C58.916 25.3613 60.0352 25.2383 61.0898 24.9922C62.1445 24.7461 63.2461 24.3535 64.3945 23.8145V27.9629C63.457 28.4316 62.4551 28.7773 61.3887 29C60.3223 29.2344 59.0215 29.3516 57.4863 29.3516ZM83.5723 23.1641C83.5723 25.1797 82.8691 26.7148 81.4629 27.7695C80.0684 28.8242 77.9766 29.3516 75.1875 29.3516C73.7578 29.3516 72.5391 29.252 71.5312 29.0527C70.5234 28.8652 69.5801 28.584 68.7012 28.209V23.7793C69.6973 24.248 70.8164 24.6406 72.0586 24.957C73.3125 25.2734 74.4141 25.4316 75.3633 25.4316C77.3086 25.4316 78.2812 24.8691 78.2812 23.7441C78.2812 23.3223 78.1523 22.9824 77.8945 22.7246C77.6367 22.4551 77.1914 22.1562 76.5586 21.8281C75.9258 21.4883 75.082 21.0957 74.0273 20.6504C72.5156 20.0176 71.4023 19.4316 70.6875 18.8926C69.9844 18.3535 69.4688 17.7383 69.1406 17.0469C68.8242 16.3438 68.666 15.4824 68.666 14.4629C68.666 12.7168 69.3398 11.3691 70.6875 10.4199C72.0469 9.45898 73.9688 8.97852 76.4531 8.97852C78.8203 8.97852 81.123 9.49414 83.3613 10.5254L81.7441 14.3926C80.7598 13.9707 79.8398 13.625 78.9844 13.3555C78.1289 13.0859 77.2559 12.9512 76.3652 12.9512C74.7832 12.9512 73.9922 13.3789 73.9922 14.2344C73.9922 14.7148 74.2441 15.1309 74.748 15.4824C75.2637 15.834 76.3828 16.3555 78.1055 17.0469C79.6406 17.668 80.7656 18.248 81.4805 18.7871C82.1953 19.3262 82.7227 19.9473 83.0625 20.6504C83.4023 21.3535 83.5723 22.1914 83.5723 23.1641ZM101.467 23.1641C101.467 25.1797 100.764 26.7148 99.3574 27.7695C97.9629 28.8242 95.8711 29.3516 93.082 29.3516C91.6523 29.3516 90.4336 29.252 89.4258 29.0527C88.418 28.8652 87.4746 28.584 86.5957 28.209V23.7793C87.5918 24.248 88.7109 24.6406 89.9531 24.957C91.207 25.2734 92.3086 25.4316 93.2578 25.4316C95.2031 25.4316 96.1758 24.8691 96.1758 23.7441C96.1758 23.3223 96.0469 22.9824 95.7891 22.7246C95.5312 22.4551 95.0859 22.1562 94.4531 21.8281C93.8203 21.4883 92.9766 21.0957 91.9219 20.6504C90.4102 20.0176 89.2969 19.4316 88.582 18.8926C87.8789 18.3535 87.3633 17.7383 87.0352 17.0469C86.7188 16.3438 86.5605 15.4824 86.5605 14.4629C86.5605 12.7168 87.2344 11.3691 88.582 10.4199C89.9414 9.45898 91.8633 8.97852 94.3477 8.97852C96.7148 8.97852 99.0176 9.49414 101.256 10.5254L99.6387 14.3926C98.6543 13.9707 97.7344 13.625 96.8789 13.3555C96.0234 13.0859 95.1504 12.9512 94.2598 12.9512C92.6777 12.9512 91.8867 13.3789 91.8867 14.2344C91.8867 14.7148 92.1387 15.1309 92.6426 15.4824C93.1582 15.834 94.2773 16.3555 96 17.0469C97.5352 17.668 98.6602 18.248 99.375 18.7871C100.09 19.3262 100.617 19.9473 100.957 20.6504C101.297 21.3535 101.467 22.1914 101.467 23.1641Z" fill="white"/>
<path d="M8.54883 9.78711L9.35543 10.3782L9.35757 10.3753L8.54883 9.78711ZM19.8691 23.4629H20.8691V22.0513L19.5374 22.5195L19.8691 23.4629ZM19.8691 28.0332L20.2538 28.9563L20.8691 28.6999V28.0332H19.8691ZM4.22461 25.959L3.47059 26.6158L3.47227 26.6178L4.22461 25.959ZM2.71289 9.17188L3.61252 9.60854L3.61351 9.60648L2.71289 9.17188ZM6.89648 4.54883L7.40278 5.41119L7.40447 5.41019L6.89648 4.54883ZM20.8359 4.74219L21.7654 5.11103L22.1097 4.24356L21.268 3.84034L20.8359 4.74219ZM19.0781 9.17188L18.6486 10.0749L19.6135 10.5339L20.0076 9.54072L19.0781 9.17188ZM13.3125 6.4668C10.9688 6.4668 9.0686 7.37223 7.74009 9.19894L9.35757 10.3753C10.2791 9.10824 11.5547 8.4668 13.3125 8.4668V6.4668ZM7.74223 9.19601C6.44662 10.964 5.86133 13.3455 5.86133 16.2207H7.86133C7.86133 13.588 8.40104 11.6805 9.35543 10.3782L7.74223 9.19601ZM5.86133 16.2207C5.86133 19.1822 6.41192 21.5857 7.67432 23.2677C8.97723 25.0038 10.9184 25.8164 13.3125 25.8164V23.8164C11.4058 23.8164 10.1214 23.1964 9.27393 22.0672C8.38593 20.884 7.86133 18.9897 7.86133 16.2207H5.86133ZM13.3125 25.8164C15.2721 25.8164 17.5764 25.329 20.2008 24.4063L19.5374 22.5195C17.0291 23.4014 14.9622 23.8164 13.3125 23.8164V25.8164ZM18.8691 23.4629V28.0332H20.8691V23.4629H18.8691ZM19.4845 27.1101C17.5127 27.9317 15.2905 28.3516 12.8027 28.3516V30.3516C15.5181 30.3516 18.0068 29.8925 20.2538 28.9563L19.4845 27.1101ZM12.8027 28.3516C9.2768 28.3516 6.72268 27.2939 4.97694 25.3002L3.47227 26.6178C5.68748 29.1475 8.8521 30.3516 12.8027 30.3516V28.3516ZM4.97863 25.3021C3.21088 23.2729 2.25391 20.2838 2.25391 16.1855H0.253906C0.253906 20.5716 1.2774 24.0982 3.47059 26.6158L4.97863 25.3021ZM2.25391 16.1855C2.25391 13.6351 2.7178 11.4519 3.61252 9.60854L1.81326 8.73521C0.762665 10.8997 0.253906 13.3922 0.253906 16.1855H2.25391ZM3.61351 9.60648C4.50569 7.75762 5.76821 6.37084 7.40278 5.41119L6.39019 3.68646C4.39194 4.85963 2.8654 6.55488 1.81227 8.73727L3.61351 9.60648ZM7.40447 5.41019C9.0563 4.43604 11.014 3.93164 13.3125 3.93164V1.93164C10.7125 1.93164 8.39292 2.50537 6.3885 3.68746L7.40447 5.41019ZM13.3125 3.93164C15.6421 3.93164 18.003 4.49385 20.4039 5.64404L21.268 3.84034C18.6298 2.57646 15.9751 1.93164 13.3125 1.93164V3.93164ZM19.9064 4.37334L18.1486 8.80303L20.0076 9.54072L21.7654 5.11103L19.9064 4.37334ZM19.5076 8.26881C18.5153 7.79684 17.5153 7.38461 16.5076 7.03253L15.8479 8.9206C16.7855 9.24821 17.7191 9.63284 18.6486 10.0749L19.5076 8.26881ZM16.5076 7.03253C15.4394 6.65929 14.3729 6.4668 13.3125 6.4668V8.4668C14.1271 8.4668 14.9708 8.61415 15.8479 8.9206L16.5076 7.03253ZM43.0723 29V30H44.0723V29H43.0723ZM37.7109 29H36.7109V30H37.7109V29ZM30.293 29V30H31.293V29H30.293ZM24.9316 29H23.9316V30H24.9316V29ZM24.9316 1.64844V0.648438H23.9316V1.64844H24.9316ZM30.293 1.64844H31.293V0.648438H30.293V1.64844ZM30.1699 10.2793L31.1669 10.3568L31.1679 10.3436L31.1686 10.3303L30.1699 10.2793ZM30.0469 11.8613L29.0499 11.7838L28.9661 12.8613H30.0469V11.8613ZM30.3281 11.8613V12.8613H30.8838L31.1773 12.3895L30.3281 11.8613ZM43.0723 28H37.7109V30H43.0723V28ZM38.7109 29V17.5215H36.7109V29H38.7109ZM38.7109 17.5215C38.7109 16.0086 38.4348 14.6921 37.7223 13.7342C36.9686 12.7209 35.8487 12.2676 34.5469 12.2676V14.2676C35.3544 14.2676 35.8166 14.5233 36.1175 14.9279C36.4598 15.388 36.7109 16.1984 36.7109 17.5215H38.7109ZM34.5469 12.2676C32.7986 12.2676 31.3552 12.8802 30.4585 14.2488L32.1314 15.3449C32.5706 14.6745 33.2952 14.2676 34.5469 14.2676V12.2676ZM30.4585 14.2488C29.6253 15.5205 29.293 17.419 29.293 19.7539H31.293C31.293 17.5185 31.6286 16.1123 32.1314 15.3449L30.4585 14.2488ZM29.293 19.7539V29H31.293V19.7539H29.293ZM30.293 28H24.9316V30H30.293V28ZM25.9316 29V1.64844H23.9316V29H25.9316ZM24.9316 2.64844H30.293V0.648438H24.9316V2.64844ZM29.293 1.64844V7.2207H31.293V1.64844H29.293ZM29.293 7.2207C29.293 7.62333 29.2537 8.61461 29.1712 10.2283L31.1686 10.3303C31.2502 8.73304 31.293 7.68527 31.293 7.2207H29.293ZM29.1729 10.2018L29.0499 11.7838L31.0439 11.9389L31.1669 10.3568L29.1729 10.2018ZM30.0469 12.8613H30.3281V10.8613H30.0469V12.8613ZM31.1773 12.3895C32.1601 10.8093 33.7065 9.97852 36.0234 9.97852V7.97852C33.1373 7.97852 30.8868 9.0696 29.479 11.3332L31.1773 12.3895ZM36.0234 9.97852C38.1558 9.97852 39.6093 10.5485 40.5587 11.5352L41.9999 10.1484C40.5586 8.65067 38.5082 7.97852 36.0234 7.97852V9.97852ZM40.5587 11.5352C41.52 12.5341 42.0723 14.0322 42.0723 16.1855H44.0723C44.0723 13.6982 43.4292 11.6338 41.9999 10.1484L40.5587 11.5352ZM42.0723 16.1855V29H44.0723V16.1855H42.0723ZM54.0586 13.8828L54.8013 14.5525L54.8067 14.5464L54.0586 13.8828ZM52.9512 16.9414L51.9537 16.8708L51.8779 17.9414H52.9512V16.9414ZM60.4746 16.9414V17.9414H61.4925L61.4745 16.9237L60.4746 16.9414ZM59.4375 13.8828L58.7013 14.5596L58.7068 14.5656L59.4375 13.8828ZM49.8574 11.6855L49.1199 11.0103L49.1197 11.0105L49.8574 11.6855ZM65.502 20.5098V21.5098H66.502V20.5098H65.502ZM52.8281 20.5098V19.5098H51.7889L51.8289 20.5482L52.8281 20.5098ZM64.3945 23.8145H65.3945V22.2404L63.9696 22.9092L64.3945 23.8145ZM64.3945 27.9629L64.8418 28.8573L65.3945 28.5809V27.9629H64.3945ZM61.3887 29L61.1843 28.0211L61.174 28.0233L61.3887 29ZM56.7305 11.793C55.3614 11.793 54.1777 12.2416 53.3105 13.2192L54.8067 14.5464C55.2285 14.0709 55.8261 13.793 56.7305 13.793V11.793ZM53.3159 13.2132C52.4744 14.1465 52.0573 15.4073 51.9537 16.8708L53.9487 17.012C54.0326 15.8271 54.3537 15.0488 54.8013 14.5524L53.3159 13.2132ZM52.9512 17.9414H60.4746V15.9414H52.9512V17.9414ZM61.4745 16.9237C61.4482 15.4407 61.057 14.1513 60.1682 13.2001L58.7068 14.5656C59.1539 15.044 59.4541 15.7937 59.4748 16.9591L61.4745 16.9237ZM60.1737 13.206C59.2869 12.2415 58.1003 11.793 56.7305 11.793V13.793C57.634 13.793 58.2522 14.071 58.7013 14.5596L60.1737 13.206ZM57.4863 28.3516C54.5104 28.3516 52.316 27.5354 50.7684 26.0183L49.3683 27.4465C51.3832 29.4217 54.1342 30.3516 57.4863 30.3516V28.3516ZM50.7684 26.0183C49.2293 24.5096 48.3965 22.3248 48.3965 19.3145H46.3965C46.3965 22.7026 47.3449 25.463 49.3683 27.4465L50.7684 26.0183ZM48.3965 19.3145C48.3965 16.1815 49.1754 13.9122 50.5952 12.3606L49.1197 11.0105C47.2582 13.0448 46.3965 15.8615 46.3965 19.3145H48.3965ZM50.595 12.3608C52.0223 10.8019 54.0122 9.97852 56.6953 9.97852V7.97852C53.5659 7.97852 50.9972 8.95985 49.1199 11.0103L50.595 12.3608ZM56.6953 9.97852C59.2762 9.97852 61.1533 10.7075 62.4666 12.0507L63.8967 10.6524C62.1162 8.83158 59.6691 7.97852 56.6953 7.97852V9.97852ZM62.4666 12.0507C63.7863 13.4003 64.502 15.309 64.502 17.9082H66.502C66.502 14.9293 65.6707 12.4669 63.8967 10.6524L62.4666 12.0507ZM64.502 17.9082V20.5098H66.502V17.9082H64.502ZM65.502 19.5098H52.8281V21.5098H65.502V19.5098ZM51.8289 20.5482C51.8944 22.2515 52.4073 23.7032 53.4697 24.7803L54.8936 23.3759C54.2685 22.7421 53.8791 21.8149 53.8274 20.4713L51.8289 20.5482ZM53.4697 24.7803C54.5485 25.8741 56.0169 26.3613 57.7324 26.3613V24.3613C56.4011 24.3613 55.5023 23.9931 54.8936 23.3759L53.4697 24.7803ZM57.7324 26.3613C58.9855 26.3613 60.1814 26.231 61.3171 25.966L60.8626 24.0183C59.8889 24.2455 58.8465 24.3613 57.7324 24.3613V26.3613ZM61.3171 25.966C62.4503 25.7016 63.6182 25.2836 64.8194 24.7197L63.9696 22.9092C62.874 23.4235 61.8388 23.7906 60.8626 24.0183L61.3171 25.966ZM63.3945 23.8145V27.9629H65.3945V23.8145H63.3945ZM63.9473 27.0685C63.0898 27.4972 62.1698 27.8153 61.1843 28.0211L61.593 29.9789C62.7404 29.7393 63.8243 29.366 64.8418 28.8573L63.9473 27.0685ZM61.174 28.0233C60.2001 28.2374 58.976 28.3516 57.4863 28.3516V30.3516C59.067 30.3516 60.4444 30.2314 61.6033 29.9767L61.174 28.0233ZM81.4629 27.7695L80.8629 26.9695L80.8597 26.972L81.4629 27.7695ZM71.5312 29.0527L71.7252 28.0717L71.7142 28.0696L71.5312 29.0527ZM68.7012 28.209H67.7012V28.8695L68.3087 29.1288L68.7012 28.209ZM68.7012 23.7793L69.127 22.8745L67.7012 22.2035V23.7793H68.7012ZM72.0586 24.957L71.8118 25.9261L71.8139 25.9266L72.0586 24.957ZM77.8945 22.7246L77.1719 23.4158L77.1796 23.4239L77.1874 23.4317L77.8945 22.7246ZM76.5586 21.8281L76.0855 22.7091L76.0918 22.7125L76.0983 22.7159L76.5586 21.8281ZM74.0273 20.6504L74.4163 19.7291L74.4135 19.728L74.0273 20.6504ZM70.6875 18.8926L70.0791 19.6862L70.0854 19.691L70.6875 18.8926ZM69.1406 17.0469L68.2287 17.4572L68.2329 17.4665L68.2372 17.4756L69.1406 17.0469ZM70.6875 10.4199L71.2634 11.2375L71.2647 11.2365L70.6875 10.4199ZM83.3613 10.5254L84.2839 10.9112L84.6562 10.0209L83.7798 9.61715L83.3613 10.5254ZM81.7441 14.3926L81.3502 15.3117L82.2775 15.7091L82.6667 14.7784L81.7441 14.3926ZM74.748 15.4824L74.1758 16.3026L74.1847 16.3087L74.748 15.4824ZM78.1055 17.0469L78.4805 16.1199L78.478 16.1188L78.1055 17.0469ZM82.5723 23.1641C82.5723 24.9176 81.978 26.1332 80.8629 26.9695L82.0629 28.5695C83.7603 27.2965 84.5723 25.4418 84.5723 23.1641H82.5723ZM80.8597 26.972C79.715 27.8377 77.8791 28.3516 75.1875 28.3516V30.3516C78.074 30.3516 80.4217 29.8108 82.0661 28.5671L80.8597 26.972ZM75.1875 28.3516C73.7997 28.3516 72.6498 28.2545 71.7252 28.0717L71.3373 30.0338C72.4283 30.2494 73.7159 30.3516 75.1875 30.3516V28.3516ZM71.7142 28.0696C70.7731 27.8945 69.9005 27.6335 69.0936 27.2892L68.3087 29.1288C69.2596 29.5345 70.2738 29.8359 71.3483 30.0359L71.7142 28.0696ZM69.7012 28.209V23.7793H67.7012V28.209H69.7012ZM68.2754 24.6841C69.3374 25.1839 70.5178 25.5965 71.8118 25.9261L72.3054 23.988C71.115 23.6848 70.0571 23.3122 69.127 22.8745L68.2754 24.6841ZM71.8139 25.9266C73.1211 26.2565 74.3079 26.4316 75.3633 26.4316V24.4316C74.5202 24.4316 73.5039 24.2904 72.3033 23.9874L71.8139 25.9266ZM75.3633 26.4316C76.3996 26.4316 77.3397 26.2876 78.0524 25.8754C78.8482 25.4152 79.2812 24.6631 79.2812 23.7441H77.2812C77.2812 23.9502 77.2279 24.0419 77.0511 24.1441C76.7912 24.2944 76.2723 24.4316 75.3633 24.4316V26.4316ZM79.2812 23.7441C79.2812 23.1021 79.0766 22.4925 78.6016 22.0175L77.1874 23.4317C77.2281 23.4723 77.2812 23.5424 77.2812 23.7441H79.2812ZM78.6172 22.0334C78.2424 21.6416 77.6773 21.2818 77.0189 20.9404L76.0983 22.7159C76.7055 23.0307 77.031 23.2686 77.1719 23.4158L78.6172 22.0334ZM77.0317 20.9471C76.3604 20.5866 75.485 20.1804 74.4163 19.7291L73.6384 21.5716C74.679 22.011 75.4912 22.39 76.0855 22.7091L77.0317 20.9471ZM74.4135 19.728C72.9263 19.1054 71.9042 18.5576 71.2896 18.0942L70.0854 19.691C70.9005 20.3056 72.1049 20.9297 73.6412 21.5728L74.4135 19.728ZM71.2959 18.099C70.6988 17.6412 70.2942 17.1452 70.0441 16.6181L68.2372 17.4756C68.6433 18.3314 69.27 19.0659 70.0791 19.6862L71.2959 18.099ZM70.0526 16.6365C69.8097 16.0969 69.666 15.3844 69.666 14.4629H67.666C67.666 15.5805 67.8387 16.5906 68.2287 17.4572L70.0526 16.6365ZM69.666 14.4629C69.666 13.0193 70.1997 11.9867 71.2634 11.2375L70.1116 9.60236C68.48 10.7516 67.666 12.4143 67.666 14.4629H69.666ZM71.2647 11.2365C72.3908 10.4405 74.0792 9.97852 76.4531 9.97852V7.97852C73.8583 7.97852 71.703 8.47746 70.1103 9.60334L71.2647 11.2365ZM76.4531 9.97852C78.6699 9.97852 80.8303 10.4603 82.9429 11.4336L83.7798 9.61715C81.4158 8.52799 78.9707 7.97852 76.4531 7.97852V9.97852ZM82.4388 10.1396L80.8216 14.0068L82.6667 14.7784L84.2839 10.9112L82.4388 10.1396ZM82.1381 13.4734C81.1288 13.0409 80.1774 12.6829 79.2849 12.4017L78.6839 14.3092C79.5023 14.5671 80.3907 14.9005 81.3502 15.3117L82.1381 13.4734ZM79.2849 12.4017C78.3329 12.1017 77.3585 11.9512 76.3652 11.9512V13.9512C77.1532 13.9512 77.9249 14.0701 78.6839 14.3092L79.2849 12.4017ZM76.3652 11.9512C75.5168 11.9512 74.7239 12.0603 74.1098 12.3923C73.7878 12.5665 73.4964 12.8122 73.2892 13.1482C73.0805 13.4869 72.9922 13.8608 72.9922 14.2344H74.9922C74.9922 14.1802 75.0027 14.1799 74.9918 14.1977C74.9824 14.2129 74.9876 14.1913 75.0611 14.1516C75.238 14.0559 75.6316 13.9512 76.3652 13.9512V11.9512ZM72.9922 14.2344C72.9922 15.1316 73.4872 15.8221 74.1759 16.3025L75.3202 14.6623C75.001 14.4396 74.9922 14.298 74.9922 14.2344H72.9922ZM74.1847 16.3087C74.8051 16.7316 76.0271 17.2902 77.733 17.9749L78.478 16.1188C76.7386 15.4207 75.7223 14.9364 75.3114 14.6562L74.1847 16.3087ZM77.7304 17.9739C79.2408 18.5849 80.2691 19.1261 80.8784 19.5855L82.0826 17.9887C81.2622 17.37 80.0405 16.751 78.4805 16.1199L77.7304 17.9739ZM80.8784 19.5855C81.485 20.043 81.901 20.5452 82.1622 21.0856L83.9628 20.2152C83.5443 19.3494 82.9056 18.6093 82.0826 17.9887L80.8784 19.5855ZM82.1622 21.0856C82.4223 21.6239 82.5723 22.306 82.5723 23.1641H84.5723C84.5723 22.0768 84.3824 21.0832 83.9628 20.2152L82.1622 21.0856ZM99.3574 27.7695L98.7574 26.9695L98.7542 26.972L99.3574 27.7695ZM89.4258 29.0527L89.6197 28.0717L89.6087 28.0696L89.4258 29.0527ZM86.5957 28.209H85.5957V28.8695L86.2033 29.1288L86.5957 28.209ZM86.5957 23.7793L87.0215 22.8745L85.5957 22.2035V23.7793H86.5957ZM89.9531 24.957L89.7063 25.9261L89.7085 25.9266L89.9531 24.957ZM95.7891 22.7246L95.0664 23.4158L95.0741 23.4239L95.082 23.4317L95.7891 22.7246ZM94.4531 21.8281L93.98 22.7091L93.9864 22.7125L93.9928 22.7159L94.4531 21.8281ZM91.9219 20.6504L92.3109 19.7291L92.308 19.728L91.9219 20.6504ZM88.582 18.8926L87.9736 19.6862L87.9799 19.691L88.582 18.8926ZM87.0352 17.0469L86.1232 17.4572L86.1274 17.4665L86.1317 17.4756L87.0352 17.0469ZM88.582 10.4199L89.1579 11.2375L89.1593 11.2365L88.582 10.4199ZM101.256 10.5254L102.178 10.9112L102.551 10.0209L101.674 9.61715L101.256 10.5254ZM99.6387 14.3926L99.2448 15.3117L100.172 15.7091L100.561 14.7784L99.6387 14.3926ZM92.6426 15.4824L92.0704 16.3026L92.0792 16.3087L92.6426 15.4824ZM96 17.0469L96.375 16.1199L96.3725 16.1188L96 17.0469ZM100.467 23.1641C100.467 24.9176 99.8725 26.1332 98.7574 26.9695L99.9574 28.5695C101.655 27.2965 102.467 25.4418 102.467 23.1641H100.467ZM98.7542 26.972C97.6096 27.8377 95.7736 28.3516 93.082 28.3516V30.3516C95.9686 30.3516 98.3162 29.8108 99.9606 28.5671L98.7542 26.972ZM93.082 28.3516C91.6942 28.3516 90.5443 28.2545 89.6197 28.0717L89.2319 30.0338C90.3229 30.2494 91.6105 30.3516 93.082 30.3516V28.3516ZM89.6087 28.0696C88.6676 27.8945 87.795 27.6335 86.9881 27.2892L86.2033 29.1288C87.1542 29.5345 88.1683 29.8359 89.2429 30.0359L89.6087 28.0696ZM87.5957 28.209V23.7793H85.5957V28.209H87.5957ZM86.1699 24.6841C87.2319 25.1839 88.4123 25.5965 89.7063 25.9261L90.2 23.988C89.0096 23.6848 87.9517 23.3122 87.0215 22.8745L86.1699 24.6841ZM89.7085 25.9266C91.0156 26.2565 92.2025 26.4316 93.2578 26.4316V24.4316C92.4147 24.4316 91.3984 24.2904 90.1978 23.9874L89.7085 25.9266ZM93.2578 26.4316C94.2941 26.4316 95.2342 26.2876 95.9469 25.8754C96.7428 25.4152 97.1758 24.6631 97.1758 23.7441H95.1758C95.1758 23.9502 95.1225 24.0419 94.9457 24.1441C94.6857 24.2944 94.1668 24.4316 93.2578 24.4316V26.4316ZM97.1758 23.7441C97.1758 23.1021 96.9712 22.4925 96.4962 22.0175L95.082 23.4317C95.1226 23.4723 95.1758 23.5424 95.1758 23.7441H97.1758ZM96.5117 22.0334C96.1369 21.6416 95.5719 21.2818 94.9134 20.9404L93.9928 22.7159C94.6 23.0307 94.9256 23.2686 95.0664 23.4158L96.5117 22.0334ZM94.9263 20.9471C94.2549 20.5866 93.3795 20.1804 92.3109 19.7291L91.5329 21.5716C92.5736 22.011 93.3857 22.39 93.98 22.7091L94.9263 20.9471ZM92.308 19.728C90.8209 19.1054 89.7987 18.5576 89.1841 18.0942L87.9799 19.691C88.795 20.3056 89.9995 20.9297 91.5357 21.5728L92.308 19.728ZM89.1905 18.099C88.5933 17.6412 88.1887 17.1452 87.9386 16.6181L86.1317 17.4756C86.5379 18.3314 87.1645 19.0659 87.9736 19.6862L89.1905 18.099ZM87.9471 16.6365C87.7042 16.0969 87.5605 15.3844 87.5605 14.4629H85.5605C85.5605 15.5805 85.7333 16.5906 86.1232 17.4572L87.9471 16.6365ZM87.5605 14.4629C87.5605 13.0193 88.0942 11.9867 89.1579 11.2375L88.0062 9.60236C86.3745 10.7516 85.5605 12.4143 85.5605 14.4629H87.5605ZM89.1593 11.2365C90.2853 10.4405 91.9737 9.97852 94.3477 9.97852V7.97852C91.7528 7.97852 89.5975 8.47746 88.0048 9.60334L89.1593 11.2365ZM94.3477 9.97852C96.5644 9.97852 98.7248 10.4603 100.837 11.4336L101.674 9.61715C99.3103 8.52799 96.8653 7.97852 94.3477 7.97852V9.97852ZM100.333 10.1396L98.7161 14.0068L100.561 14.7784L102.178 10.9112L100.333 10.1396ZM100.033 13.4734C99.0233 13.0409 98.0719 12.6829 97.1794 12.4017L96.5784 14.3092C97.3968 14.5671 98.2853 14.9005 99.2448 15.3117L100.033 13.4734ZM97.1794 12.4017C96.2274 12.1017 95.2531 11.9512 94.2598 11.9512V13.9512C95.0477 13.9512 95.8195 14.0701 96.5784 14.3092L97.1794 12.4017ZM94.2598 11.9512C93.4113 11.9512 92.6184 12.0603 92.0043 12.3923C91.6823 12.5665 91.3909 12.8122 91.1838 13.1482C90.975 13.4869 90.8867 13.8608 90.8867 14.2344H92.8867C92.8867 14.1802 92.8973 14.1799 92.8863 14.1977C92.8769 14.2129 92.8822 14.1913 92.9556 14.1516C93.1326 14.0559 93.5262 13.9512 94.2598 13.9512V11.9512ZM90.8867 14.2344C90.8867 15.1316 91.3818 15.8221 92.0704 16.3025L93.2148 14.6623C92.8956 14.4396 92.8867 14.298 92.8867 14.2344H90.8867ZM92.0792 16.3087C92.6996 16.7316 93.9216 17.2902 95.6275 17.9749L96.3725 16.1188C94.6331 15.4207 93.6168 14.9364 93.2059 14.6562L92.0792 16.3087ZM95.625 17.9739C97.1353 18.5849 98.1636 19.1261 98.7729 19.5855L99.9771 17.9887C99.1567 17.37 97.935 16.751 96.375 16.1199L95.625 17.9739ZM98.7729 19.5855C99.3796 20.043 99.7955 20.5452 100.057 21.0856L101.857 20.2152C101.439 19.3494 100.8 18.6093 99.9771 17.9887L98.7729 19.5855ZM100.057 21.0856C100.317 21.6239 100.467 22.306 100.467 23.1641H102.467C102.467 22.0768 102.277 21.0832 101.857 20.2152L100.057 21.0856Z" fill="black"/>
</svg>
